<?xml version="1.0" encoding="utf-8"?>
<!-- Generator: Adobe Illustrator 26.0.1, SVG Export Plug-In . SVG Version: 6.00 Build 0)  -->
<svg version="1.1" id="Layer_1" xmlns="http://www.w3.org/2000/svg" xmlns:xlink="http://www.w3.org/1999/xlink" x="0px" y="0px"
	 viewBox="0 0 792 612" style="enable-background:new 0 0 792 612;" xml:space="preserve">
<style type="text/css">
	.st0{fill:#FF0033;}
</style>
<path class="st0" d="M554.3,339.2l-14.2,0.7c-1,0-2.2,0.1-3.2-0.6c-1.4-0.9-2.4-2.9-3.5-5l-11-22.3h-60l8.8-22.1h40.4l-24.6-50
	c-1.5-2.9-4-2.8-5.3,0.4c-13,31.1-26.1,62.1-39.1,93.3c-0.9,2.2-1.8,4.4-3.2,5.6c-1.4,1.3-2.9,1.3-4.4,1.3
	c-5.3,0.1-7.6,0.5-12.9,0.5c-3.3,0-9.7-0.2-12.9-1.9c-4.5-2.2-8.4-7.5-12.2-12.5c-5.3-7.2-4.4-9.5-9.7-16.7
	c-2.4-3.3-6.2-10-9.1-12.1c-7.7-5.5-20.1-3.3-27.6-3.9c-0.8-11.9-4.6-23.1-10.3-29.2c20.4-0.8,41.4-0.2,61.8-0.9
	c2.7-0.1,4.8-1.6,6.7-7.2c0.9-3,1.3-6.7,0.6-9.9c-1.7-8.6-4.6-7.5-9.7-7.5c-38.4,0.5-80.3-1.8-118.7-1.3c-3.2,0-6.6,0.1-9.5,3.2
	c-3.8,4-4,12.8,0,16.8c2.3,2.3,5.2,1.6,7.8,1.9c10.6,0.8,20.7,0.5,30.2,0.9c11.3,0.6,21.5,1.3,30.2,16.7c2.2,3.9,3.6,9.1,3.8,14.7
	c1,21.4-3.8,34.8-13,40.9c-16,10.6-32.8,7.6-49.5,7.9c-18.3,0.4-36.7-0.5-54.9-0.7c0-0.1,0-0.2,0-0.4l-0.3-14
	c-0.1-5,2.1-9.3,4.8-9.5l75.8-0.7c3.6-0.1,7.2-2.7,10.2-6.4c2.5-3.3,4.2-10.6,2.3-15.8c-2.1-5.5-8-5.8-11.3-6.1
	c-9.1-0.8-17.8,0-26.2-1.3c-12.8-2-18-2.7-28-11c-1.8-1.5-6.1-8.1-7.2-11.1c-5.5-16-2.1-37.5,7.2-46.3c8.2-7.8,18.6-8.3,27.5-7.7
	c14.2,0.8,28.4,1.3,42.6,1.3c29.1,0.4,58,0.8,87.1,1.2c4.6,0.1,9.2,2.3,13.2,6.8l0.1,0.1c2.8,3.2,5.4,6.1,7.4,12.3
	c0.8,2.5,2.7,9.1,2.2,17.8c-0.7,13.2-6.5,22.9-12,29.9c-3.3,4.2-6.9,7.6-10.7,10c-1,0.7-3.7,2.7-6.1,4c-1.2,0.6-1.4,3.5-0.3,4.6
	l15.7,16.5c2.1,2.1,4.6,1.2,6.1-2.2l40.6-97.3c0.6-1.5,1.3-3,2.2-4c1.2-1.2,2.4-1.2,3.7-1.2c6.6-0.2,13.3-0.4,19.8-0.5
	c1.4,0,2.9,0,4.2,1.2c0.9,0.9,1.7,2.5,2.4,3.9l57.3,116.6C557.9,333.8,556.7,339.1,554.3,339.2z"/>
</svg>
